HIERARCHY
ROOT hip
{
  OFFSET 0 0 0
  CHANNELS 6 Xposition Yposition Zposition Zrotation Yrotation Xrotation
  JOINT abdomen
  {
    OFFSET 0 20.6881 -0.73152
    CHANNELS 3 Zrotation Xrotation Yrotation
    JOINT chest
    {
      OFFSET 0 11.7043 -0.48768
      CHANNELS 3 Zrotation Xrotation Yrotation
      JOINT neck
      {
        OFFSET 0 22.1894 -2.19456
        CHANNELS 3 Zrotation Xrotation Yrotation
        JOINT head
        {
          OFFSET -0.24384 7.07133 1.2192
          CHANNELS 3 Zrotation Xrotation Yrotation
          JOINT leftEye
          {
            OFFSET 4.14528 8.04674 8.04672
            CHANNELS 3 Zrotation Xrotation Yrotation
            End Site
            {
              OFFSET 1 0 0
            }
          }
          JOINT rightEye
          {
            OFFSET -3.6576 8.04674 8.04672
            CHANNELS 3 Zrotation Xrotation Yrotation
            End Site
            {
              OFFSET 1 0 0
            }
          }
        }
      }
      JOINT rCollar
      {
        OFFSET -2.68224 19.2634 -4.8768
        CHANNELS 3 Zrotation Xrotation Yrotation
        JOINT rShldr
        {
          OFFSET -8.77824 -1.95073 1.46304
          CHANNELS 3 Zrotation Xrotation Yrotation
          JOINT rForeArm
          {
            OFFSET -28.1742 -1.7115 0.48768
            CHANNELS 3 Zrotation Xrotation Yrotation
            JOINT rHand
            {
              OFFSET -22.5879 0.773209 7.07136
              CHANNELS 3 Zrotation Xrotation Yrotation
              JOINT rThumb1
              {
                OFFSET -1.2192 -0.487915 3.41376
                CHANNELS 3 Zrotation Xrotation Yrotation
                JOINT rThumb2
                {
                  OFFSET -3.37035 -0.52449 3.41376
                  CHANNELS 3 Zrotation Xrotation Yrotation
                  End Site
                  {
                    OFFSET -1.78271 -1.18214 1.43049
                  }
                }
              }
              JOINT rIndex1
              {
                OFFSET -7.75947 0.938293 5.60832
                CHANNELS 3 Zrotation Xrotation Yrotation
                JOINT rIndex2
                {
                  OFFSET -2.54057 -0.884171 1.56538
                  CHANNELS 3 Zrotation Xrotation Yrotation
                  End Site
                  {
                    OFFSET -1.62519 -0.234802 1.16502
                  }
                }
              }
              JOINT rMid1
              {
                OFFSET -8.24714 1.18213 3.41376
                CHANNELS 3 Zrotation Xrotation Yrotation
                JOINT rMid2
                {
                  OFFSET -3.10165 -0.590103 1.0647
                  CHANNELS 3 Zrotation Xrotation Yrotation
                  End Site
                  {
                    OFFSET -2.48547 -0.328903 0.83742
                  }
                }
              }
              JOINT rRing1
              {
                OFFSET -8.82822 0.546677 1.51678
                CHANNELS 3 Zrotation Xrotation Yrotation
                JOINT rRing2
                {
                  OFFSET -2.60934 -0.819778 -0.0198488
                  CHANNELS 3 Zrotation Xrotation Yrotation
                  End Site
                  {
                    OFFSET -2.33842 -0.294052 0.168128
                  }
                }
              }
              JOINT rPinky1
              {
                OFFSET -8.27202 -0.0477905 -0.4584
                CHANNELS 3 Zrotation Xrotation Yrotation
                JOINT rPinky2
                {
                  OFFSET -1.82734 -0.647385 -0.700984
                  CHANNELS 3 Zrotation Xrotation Yrotation
                  End Site
                  {
                    OFFSET -1.69225 -0.51767 -0.607171
                  }
                }
              }
            }
          }
        }
      }
      JOINT lCollar
      {
        OFFSET 2.68224 19.2634 -4.8768
        CHANNELS 3 Zrotation Xrotation Yrotation
        JOINT lShldr
        {
          OFFSET 8.77824 -1.95073 1.46304
          CHANNELS 3 Zrotation Xrotation Yrotation
          JOINT lForeArm
          {
            OFFSET 28.1742 -1.7115 0.48768
            CHANNELS 3 Zrotation Xrotation Yrotation
            JOINT lHand
            {
              OFFSET 22.5879 0.773209 7.07136
              CHANNELS 3 Zrotation Xrotation Yrotation
              JOINT lThumb1
              {
                OFFSET 1.2192 -0.487915 3.41376
                CHANNELS 3 Zrotation Xrotation Yrotation
                JOINT lThumb2
                {
                  OFFSET 3.37035 -0.52449 3.41376
                  CHANNELS 3 Zrotation Xrotation Yrotation
                  End Site
                  {
                    OFFSET 1.78271 -1.18214 1.43049
                  }
                }
              }
              JOINT lIndex1
              {
                OFFSET 7.75947 0.938293 5.60832
                CHANNELS 3 Zrotation Xrotation Yrotation
                JOINT lIndex2
                {
                  OFFSET 2.54057 -0.884171 1.56538
                  CHANNELS 3 Zrotation Xrotation Yrotation
                  End Site
                  {
                    OFFSET 1.62519 -0.234802 1.16502
                  }
                }
              }
              JOINT lMid1
              {
                OFFSET 8.24714 1.18213 3.41376
                CHANNELS 3 Zrotation Xrotation Yrotation
                JOINT lMid2
                {
                  OFFSET 3.10165 -0.590103 1.0647
                  CHANNELS 3 Zrotation Xrotation Yrotation
                  End Site
                  {
                    OFFSET 2.48547 -0.328903 0.83742
                  }
                }
              }
              JOINT lRing1
              {
                OFFSET 8.82822 0.546677 1.51678
                CHANNELS 3 Zrotation Xrotation Yrotation
                JOINT lRing2
                {
                  OFFSET 2.60934 -0.819778 -0.0198488
                  CHANNELS 3 Zrotation Xrotation Yrotation
                  End Site
                  {
                    OFFSET 2.33842 -0.294052 0.168128
                  }
                }
              }
              JOINT lPinky1
              {
                OFFSET 8.27202 -0.0477905 -0.4584
                CHANNELS 3 Zrotation Xrotation Yrotation
                JOINT lPinky2
                {
                  OFFSET 1.82734 -0.647385 -0.700984
                  CHANNELS 3 Zrotation Xrotation Yrotation
                  End Site
                  {
                    OFFSET 1.69225 -0.51767 -0.607171
                  }
                }
              }
            }
          }
        }
      }
    }
  }
  JOINT rButtock
  {
    OFFSET -8.77824 4.35084 1.2192
    CHANNELS 3 Zrotation Xrotation Yrotation
    JOINT rThigh
    {
      OFFSET 0 -1.70687 -2.19456
      CHANNELS 3 Zrotation Xrotation Yrotation
      JOINT rShin
      {
        OFFSET 0 -36.8199 0.73152
        CHANNELS 3 Zrotation Xrotation Yrotation
        JOINT rFoot
        {
          OFFSET 0.73152 -45.1104 -5.12064
          CHANNELS 3 Zrotation Xrotation Yrotation
          End Site
          {
            OFFSET -1.1221 -3.69964 12.103
          }
        }
      }
    }
  }
  JOINT lButtock
  {
    OFFSET 8.77824 4.35084 1.2192
    CHANNELS 3 Zrotation Xrotation Yrotation
    JOINT lThigh
    {
      OFFSET 0 -1.70687 -2.19456
      CHANNELS 3 Zrotation Xrotation Yrotation
      JOINT lShin
      {
        OFFSET 0 -36.8199 0.73152
        CHANNELS 3 Zrotation Xrotation Yrotation
        JOINT lFoot
        {
          OFFSET -0.73152 -45.1104 -5.12064
          CHANNELS 3 Zrotation Xrotation Yrotation
          End Site
          {
            OFFSET 1.1221 -3.69964 12.103
          }
        }
      }
    }
  }
}
MOTION
Frames:	4
Frame Time:	0.03333
-0.1090700039640069 54.262399673461914 0.13800000306218863 4.45390019030773 10.099400305857763 3.560899913879107 -15.527000738298288 28.198799695970944 1.6334700489729914 4.741510064746858 -12.640800144124556 -0.17886799346830223 -10.78709960998779 22.26440008088912 -18.774499556545475 22.242400041572512 -29.024499557186495 -32.389699610305925 -0.0 0.0 0.0 -0.0 0.0 0.0 -5.477690232411272e-14 -2.2686700573033626e-14 3.3255698800009214e-14 -25.81910031743597 32.69480074543581 94.54830060487053 -27.916799968161335 -40.80139859206762 85.39519824908228 -0.7886710044865297 -24.360100193734965 -3.6488398801034907 6.614170196157678e-10 9.796850134198582e-11 7.870510167725865e-10 1.1281399625297632e-09 1.6914700424137857e-10 1.3742100359628848e-09 6.614170196157678e-10 9.797270066808869e-11 7.870479853064057e-10 7.730910121524428 5.474879855648998 0.41731399283890674 6.61414982072925e-10 9.797329702209147e-11 7.870549924659383e-10 2.90554006136521 0.9651829962377875 0.10290200252939893 6.614270085453143e-10 9.797170053272988e-11 7.870489792297437e-10 10.278599710243157 0.7318009818271524 0.025912300303053633 6.614129942262492e-10 9.797329702209147e-11 7.870539985426003e-10 2.221669932038622 -0.7334870246959406 -0.20891999872313852 -5.490649939606574e-14 -2.2686400284915774e-14 3.29943996060649e-14 -77.17010003544534 45.75530064613202 14.535199214204491 27.95979942408115 -40.61039918211738 -85.03069837383539 21.364300676591917 -73.51590101816433 28.348000055747995 1.2517799755340552e-10 1.741969920570809e-09 6.699819800440312e-11 2.1013400485868682e-10 2.9429499524921116e-09 1.2238499842949502e-10 1.2517700363006757e-10 1.7419800585888562e-09 6.701400138547663e-11 -7.730910121524428 5.474879855648998 -0.41731399283890674 1.2518599863627608e-10 1.7419899978222358e-09 6.699309793527522e-11 -2.90554006136521 0.9651829962377875 -0.10290200252939893 1.2517500335934992e-10 1.7419800585888562e-09 6.699960192111798e-11 -10.278599710243157 0.7318009818271524 -0.025912300303053633 1.2518100417150283e-10 1.7419800585888562e-09 6.698869982450476e-11 -2.221669932038622 -0.7334870246959406 0.20891999872313852 -2.0321699793705798e-16 0.0 -3.882510030490358e-19 -56.63249984278239 -52.084399817875955 -35.63940116456045 -172.81400396432093 80.5733988837551 173.83499430183278 -10.54480035672888 -13.287700167021157 -21.96250059693268 2.0321699793705798e-16 0.0 3.882510030490358e-19 52.963998409379364 -65.39669805741927 41.44100141160971 48.81859950774772 88.65119723775156 -49.5588998062233 3.0658599691110417 -8.14850020341619 10.900500387003865
-0.4032599972561002 54.566001892089844 0.3530000103637576 3.7867998829408163 7.194299724476961 3.9589001594576274 -14.85660059578861 27.398800129054862 1.8734199306008283 4.695159974152329 -12.635300134295404 -0.0321838013433005 -10.567299853628548 22.721700028841692 -19.015400328571825 22.196200642026543 -29.739500834976354 -32.811299867014135 -0.0 0.0 0.0 -0.0 0.0 0.0 3.7675800366979856e-14 -8.198159839053677e-14 1.8193699970616417e-13 -30.16970029984961 31.583901212784504 100.73199870956323 -27.92699914813946 -40.768200457606774 85.32169858342378 -0.781957995749465 -24.250699346251576 -3.6307198151222697 1.1347700275479415e-09 1.0652700126855242e-10 2.5799999610935646e-09 1.9115300614716513e-09 1.8441600243224765e-10 4.479779860863884e-09 1.134779966781321e-09 1.0652399465045509e-10 2.579990021860185e-09 7.730910121524428 5.474879855648998 0.41731399283890674 1.134759988922228e-09 1.0652300072711714e-10 2.5800100991116114e-09 2.90554006136521 0.9651829962377875 0.10290200252939893 1.134779966781321e-09 1.0652199437973745e-10 2.579990021860185e-09 10.278599710243157 0.7318009818271524 0.025912300303053633 1.1347700275479415e-09 1.0652399465045509e-10 2.5799999610935646e-09 2.221669932038622 -0.7334870246959406 -0.20891999872313852 3.7624399534200845e-14 -8.19662017997669e-14 1.818049942628417e-13 -86.48599995010083 44.31559922193088 23.756999612664718 27.87970008813712 -41.0032989839332 -85.74150250038028 24.854199493388272 -75.13889739893193 31.97220088219431 3.7644799834978124e-11 1.8049099917065408e-10 2.8460800967357787e-10 4.442309920098146e-11 2.5166201037288697e-10 4.911929876213369e-10 3.763979915818403e-11 1.805070013363952e-10 2.846189925264623e-10 -7.730910121524428 5.474879855648998 -0.41731399283890674 3.76495986210942e-11 1.80496999982807e-10 2.846059969788185e-10 -2.90554006136521 0.9651829962377875 -0.10290200252939893 3.763979915818403e-11 1.8050300079495993e-10 2.8460800967357787e-10 -10.278599710243157 0.7318009818271524 -0.025912300303053633 3.764630003801636e-11 1.8050300079495993e-10 2.8459799589594795e-10 -2.221669932038622 -0.7334870246959406 0.20891999872313852 -2.0321699793705798e-16 0.0 -3.882510030490358e-19 -58.01699967811148 -52.63340017807782 -38.3616003790257 -171.85199914048133 81.78040259312309 172.78400577348626 -9.888400394470436 -14.39190013787033 -19.98099953946216 2.0321699793705798e-16 0.0 3.882510030490358e-19 51.463299980795426 -66.5723033871727 38.96369862983526 32.289299244601324 88.13070267205073 -33.02289912750113 2.268420015586421 -11.695400363930887 7.0641000971972385
-0.68703000433743 54.6891987323761 0.6040000123903155 2.0775000065852858 5.05730001904099 4.402000144125743 -13.28370023748847 26.348499742267197 2.046969914768975 4.732010125385017 -12.517000404097136 0.15892800323839046 -10.280899776446159 23.204199959737025 -19.365399712210788 21.768400281099257 -30.066598594328266 -33.55890163771247 -0.0 0.0 0.0 -0.0 0.0 0.0 4.803480013675085e-14 -1.0891699971272704e-13 1.6121800527265597e-13 -34.10420003538419 30.784198759097315 105.9249983657131 -27.970599660706235 -40.56889895272039 84.94569666961458 -0.857036982570979 -25.36890035112563 -3.8195399678404494 4.728930202113669e-10 -1.1864500157322048e-10 1.963080094179477e-09 7.805699905589348e-10 -2.0631300325036877e-10 3.399770039620703e-09 4.728960019813808e-10 -1.1864799576727607e-10 1.9630699561614296e-09 7.730910121524428 5.474879855648998 0.41731399283890674 4.728819876623156e-10 -1.1864900211465577e-10 1.963099972646236e-09 2.90554006136521 0.9651829962377875 0.10290200252939893 4.728969959047187e-10 -1.1864900211465577e-10 1.963080094179477e-09 10.278599710243157 0.7318009818271524 0.025912300303053633 4.728850191284964e-10 -1.1864799576727607e-10 1.963080094179477e-09 2.221669932038622 -0.7334870246959406 -0.20891999872313852 4.802789957646687e-14 -1.0890099647929484e-13 1.611040049835514e-13 -93.85339715871343 42.61800009995382 30.71499869752133 27.782299883025445 -41.44409890239831 -86.54329840704807 27.012499997524575 -75.95849960876595 34.20009930642575 7.740810129585796e-10 1.5524699878408678e-09 -1.1314500254221625e-10 1.3305499654964323e-09 2.5732200124360223e-09 -1.426400006211854e-10 7.74075993645723e-10 1.552480026466581e-09 -1.1313700145934569e-10 -7.730910121524428 5.474879855648998 -0.41731399283890674 7.740839947285934e-10 1.5524699878408678e-09 -1.1314399619483657e-10 -2.90554006136521 0.9651829962377875 -0.10290200252939893 7.740769875690608e-10 1.552480026466581e-09 -1.131459964655542e-10 -10.278599710243157 0.7318009818271524 -0.025912300303053633 7.740839947285934e-10 1.552480026466581e-09 -1.131559978191424e-10 -2.221669932038622 -0.7334870246959406 0.20891999872313852 -2.0321699793705798e-16 0.0 -3.882510030490358e-19 -58.934997593128706 -52.694598673041135 -41.50439922748577 -170.8290007273535 82.77019945669548 171.7080050923991 -9.212899808198053 -15.546400183088416 -18.033400125936996 2.0321699793705798e-16 0.0 3.882510030490358e-19 52.13360108556214 -67.41340020232474 38.065398980384344 31.045501306174494 88.06380096913047 -31.76979847142474 1.5966699502203148 -14.1503001252277 4.6881300019490935
-0.8635400095954537 54.710400104522705 0.8850000100210309 0.336399996753792 3.4191000640677647 4.955399999926747 -10.810000380501195 25.047999280898214 2.155439935534536 4.850609957019942 -12.285900099756109 0.3941599983981073 -9.924140213076175 23.710299901762045 -19.82620013211299 20.967200308436546 -30.00009987256902 -34.62179860087692 -0.0 0.0 0.0 -0.0 0.0 0.0 -2.3700100173665e-14 -1.0349200064203754e-13 -2.889910058693101e-14 -37.876701344184404 30.6325992953743 110.56799703894768 -28.039000590149328 -40.196499963698365 84.28010156518602 -1.0414899763668757 -27.712399727059534 -4.232170051734314 -1.3242300045596967e-09 -5.775469853735805e-10 -1.0636899976032569e-09 -2.2647400017275516e-09 -1.003040000382429e-09 -1.865840001979755e-09 -1.3242199659339834e-09 -5.775430096802286e-10 -1.0637000362289702e-09 7.730910121524428 5.474879855648998 0.41731399283890674 -1.3242300045596967e-09 -5.775430096802286e-10 -1.0636899976032569e-09 2.90554006136521 0.9651829962377875 0.10290200252939893 -1.3242199659339834e-09 -5.775420157568907e-10 -1.0637099754623497e-09 10.278599710243157 0.7318009818271524 0.025912300303053633 -1.3242300045596967e-09 -5.775430096802286e-10 -1.0637099754623497e-09 2.221669932038622 -0.7334870246959406 -0.20891999872313852 -2.369609936530695e-14 -1.0349200064203754e-13 -2.9109099044135606e-14 -99.48509986525322 41.04350147738789 35.62480163520954 27.66169923285053 -41.928898899496645 -87.44450088689624 27.215100483780077 -76.02790116092245 34.40870011386711 2.3344899634613816e-09 5.857909831079339e-09 -1.1262599565360168e-09 4.068530164857299e-09 9.907640134783843e-09 -1.7791199919583084e-09 2.3344899634613816e-09 5.857909831079339e-09 -1.1262500173026372e-09 -7.730910121524428 5.474879855648998 -0.41731399283890674 2.3344899634613816e-09 5.857899891845959e-09 -1.1262599565360168e-09 -2.90554006136521 0.9651829962377875 -0.10290200252939893 2.3344899634613816e-09 5.857920167882054e-09 -1.1262599565360168e-09 -10.278599710243157 0.7318009818271524 -0.025912300303053633 2.3344899634613816e-09 5.857909831079339e-09 -1.12626999516173e-09 -2.221669932038622 -0.7334870246959406 0.20891999872313852 -2.0321699793705798e-16 0.0 -3.882510030490358e-19 -59.27910252351395 -52.23800052702578 -44.9571998718052 -169.84299461877046 83.5439984179554 170.7050054731611 -8.514500158959555 -16.749700222378948 -16.117400582606898 2.0321699793705798e-16 0.0 3.882510030490358e-19 55.18639853132895 -67.94489820277845 38.95059832700717 42.078698608373365 88.48589982964808 -42.79059898028004 1.3795000301349396 -15.503899330978012 3.814640160884611
